<?xml version="1.0" encoding="utf-8"?>
<!-- Generator: Adobe Illustrator 22.1.0, SVG Export Plug-In . SVG Version: 6.00 Build 0)  -->
<svg version="1.1" id="Layer_1" xmlns="http://www.w3.org/2000/svg" xmlns:xlink="http://www.w3.org/1999/xlink" x="0px" y="0px"
	 viewBox="0 0 340.2 340.2" style="enable-background:new 0 0 340.2 340.2;" xml:space="preserve">
<style type="text/css">
	.st0{fill:#C84725;}
	.st1{fill:#FFFFFF;}
</style>
<path class="st0" d="M0,169c0,0.8,0,1.6,0,2.4h0.1c2.5,92.3,77.6,166.3,170,166.3s167.5-74,170-166.3h0.1c0-0.8,0-1.6,0-2.4
	c0-0.8,0-1.6,0-2.4h-0.1c-2.5-92.3-77.6-166.3-170-166.3S2.5,74.4,0.1,166.7H0C0,167.5,0,168.2,0,169z"/>
<path class="st1" d="M156.4,0.9c-18.8,1.5-36.8,6.1-53.4,13.3v128.1H2.5c-1.4,8-2.2,16.1-2.4,24.4H0c0,0.8,0,1.6,0,2.4
	c0,0.8,0,1.6,0,2.4h0.1c0.2,8.3,1,16.4,2.4,24.4H103v128.1c16.6,7.2,34.6,11.8,53.4,13.3V195.8h181.3c1.4-8,2.2-16.1,2.4-24.4h0.1
	c0-0.8,0-1.6,0-2.4c0-0.8,0-1.6,0-2.4h-0.1c-0.2-8.3-1-16.4-2.4-24.4H156.4V0.9z"/>
</svg>
