<svg xmlns="http://www.w3.org/2000/svg" width="414.551" height="353.921" viewBox="0 0 414.551 353.921"><g transform="translate(-0.002 -0.001)"><path d="M82.92,251.018a174.034,174.034,0,0,1-17.553-76.423C65.367,78.17,143.457,0,239.785,0S414.2,78.17,414.2,174.595s-78.09,174.593-174.419,174.593A173.456,173.456,0,0,1,150.6,324.669C77.974,352,0,353.921,0,353.921,65.375,317.945,79.9,266.968,82.92,251.018Z" transform="translate(0)" fill="#c74624"/><path d="M107.339,335.362V200.84H2.031a176.958,176.958,0,0,1,0-53.461H107.339V12.857A173.237,173.237,0,0,1,160.738,0V147.379H346.843a176.956,176.956,0,0,1,0,53.461H160.738V348.219A173.237,173.237,0,0,1,107.339,335.362Z" transform="translate(65.68 0.553)" fill="#fff"/></g></svg>