<svg id="Layer_1" data-name="Layer 1" xmlns="http://www.w3.org/2000/svg" viewBox="0 0 148 148"><defs><style>.cls-1{fill:none;}.cls-2{fill:#fff;}.cls-3{fill:#c74624;}</style></defs><title>Artboard 1</title><rect class="cls-1" x="-886" y="-2114" width="1920" height="4376"/><rect class="cls-1" x="-883" y="-2112" width="1920" height="4376"/><rect class="cls-1" x="-883" y="-2112" width="1920" height="4376"/><rect class="cls-2" width="148" height="148"/><path class="cls-3" d="M58.11,55.22l.09.35,5.21-.9C61.41,53.55,60.37,53.71,58.11,55.22Zm-7.79-29.3C48,25.38,44.94,28,44.46,30.77Zm3.32-5c-2.5-.56-6,1.51-7.12,4.17C49.21,24.19,51.91,23.46,53.64,21ZM71,43.79,65.69,51.2C68.88,51,71,48,71,43.79ZM54.14,23.55c4.4.24,7.92,2.3,11.57,4a14.18,14.18,0,0,0-5.48-4.62A12.15,12.15,0,0,0,56.87,22,2.69,2.69,0,0,0,54.14,23.55Zm-6.21,5.74c-5,3.52-5.86,8.11-1.79,11.85C46.73,37.22,47.33,33.24,47.93,29.29Zm.54,23.21c-.62-4.89-3.31-10.62-6-12.71C41.7,44.21,44.8,50.81,48.47,52.5Zm5.62,4.2a1.69,1.69,0,0,0,1.51,1.43,15.66,15.66,0,0,0,3.63.56c3.58-.1,7.15-.35,10.73-.56a7.74,7.74,0,0,0,1.11-.27A10.23,10.23,0,0,0,65,56.22C61.42,56.32,57.84,56.53,54.09,56.7Zm13.62-2.77c1.72,3,5.15,3.73,7.69,1.75a10.31,10.31,0,0,0,3.8-7.78,4.91,4.91,0,0,0-.09-1A38.43,38.43,0,0,1,74,51.34C72.14,52.5,69.9,53.06,67.71,53.93Zm-19.4-7.78a19.65,19.65,0,0,0,2.41,6.61,2.81,2.81,0,0,0,2.62,1.57,13.78,13.78,0,0,0,6.79-2,5.75,5.75,0,0,0-.89-.8C55.72,49.76,52.18,48,48.31,46.15ZM42.26,31.6l-.46-.12C38.34,36.6,37,42.11,39.17,48.15a8.25,8.25,0,0,0,6,5.28,8.34,8.34,0,0,0,1.29.1c-.28-.34-.4-.5-.54-.64-4.69-5-6.65-10.64-4.46-17.4A31.53,31.53,0,0,0,42.26,31.6ZM73,36.71a7.09,7.09,0,0,0-.26,1.07,7.92,7.92,0,0,0,0,1.54,16.44,16.44,0,0,1-2.23,11.23c0,.06,0,.18.07.27,3.28-.48,7.18-4.07,7.82-7.21a3.41,3.41,0,0,0-1-3.39C76.11,39,74.62,38,73,36.71ZM60.6,21.26a17.24,17.24,0,0,0,1.74,1.35,22.13,22.13,0,0,1,8.44,9c2,3.79,5.76,5.48,8.91,8a8.44,8.44,0,0,0-.46-6,25.21,25.21,0,0,0-7.77-10.17C68.31,20.91,64.62,20.46,60.6,21.26Zm5.46,13.33a10.25,10.25,0,0,0-6.54,2.27,4.8,4.8,0,0,0-2.08,3.64,14.47,14.47,0,0,0,2.83,9.09c1.24,1.63,2.78,1.77,4.24.38a21.89,21.89,0,0,0,6.2-10.48c.68-2.57-.62-4.29-3.24-4.77C67,34.63,66.45,34.63,66.06,34.59ZM53.62,26.72a3.78,3.78,0,0,1-.56.52A7.6,7.6,0,0,0,49,32.93a50.41,50.41,0,0,0-.81,7.94,5.79,5.79,0,0,0,1.16,3.25c2,2.81,5.22,3.71,8.29,4.91-.65-2.22-1.39-4.2-1.79-6.25-.82-4.27,1-7.53,5.16-9a22.77,22.77,0,0,1,4.68-.78,30.11,30.11,0,0,1,3.17,0c-.27-.33-.44-.58-.64-.78a30.6,30.6,0,0,0-11.16-6.94,7.59,7.59,0,0,0-2.71-.44,8,8,0,0,0-2.19.75ZM77.56,57a44.09,44.09,0,0,0,5.67-.92,58.47,58.47,0,0,0,7.66-2.79c5.93-2.65,12-4.91,18.45-5.78,1.07-.15,2.15-.17,3.23-.25l.14.49a7.78,7.78,0,0,1-1.7,1.09,28.45,28.45,0,0,1-4.74,1.29c-6,.91-11.49,3.14-16.89,5.65a27.89,27.89,0,0,1-11.26,2.81,27.73,27.73,0,0,0-5.9,1A39.06,39.06,0,0,1,61.09,61a10.78,10.78,0,0,1-7.67-3.06,10.75,10.75,0,0,0-7.05-3.09c-3.79-.36-6.33-2.44-8.16-5.6-3.16-5.45-3.1-10.87.43-16.12,2.15-3.19,4.44-6.29,6.73-9.39a11,11,0,0,1,8.5-4.38c3.59-.25,7.19-.34,10.78-.33a13.17,13.17,0,0,1,7.68,2.86,22.18,22.18,0,0,1,8.34,11.19,16.56,16.56,0,0,1,.75,5.29c0,3.08-.37,6.15-.64,9.22-.3,3.31-1.11,6.46-3.4,9.07Z"/><path class="cls-3" d="M94.69,113.55H92.2c-3.16-4.8-6.37-9.7-9.59-14.61l-.3.1v14.47H80V69.36c.33,0,.67-.11,1-.13s.71,0,1.25,0V94.94l.4.16,9.63-12.53H94.7L83.76,97.07Z"/><path class="cls-3" d="M108.85,105.08h-.1c0-.52,0-1,0-1.54a4.86,4.86,0,0,0-4.83-4.78,4.91,4.91,0,0,0-5,4.6,29,29,0,0,0,0,3.23,5,5,0,0,0,4.24,4.6,4.85,4.85,0,0,0,5.37-3.38A16.32,16.32,0,0,0,108.85,105.08ZM98.74,89.74H96.62a7,7,0,0,1,5.59-7,7.3,7.3,0,0,1,8.22,4,7.52,7.52,0,0,1,.74,3c.06,7.76,0,15.52,0,23.27a3.7,3.7,0,0,1-.09.59H109c-.07-.33-.16-.71-.25-1.12a2.81,2.81,0,0,0-.46.05c-.93.31-1.83.71-2.77.94a7.23,7.23,0,0,1-9-6.9c0-1,0-2.06,0-3.09a7.3,7.3,0,0,1,10.49-6.25l1.89.94V94.62c0-1.44,0-2.88,0-4.32,0-2.93-1.75-5.07-4.26-5.38-2.8-.34-4.93,1.25-5.67,4.25C98.86,89.36,98.8,89.54,98.74,89.74Z"/><path class="cls-3" d="M38.62,87.82a53.78,53.78,0,0,0,5.4,0,4.36,4.36,0,0,0,3.9-4.28c.09-2.46.07-4.92,0-7.38a4.6,4.6,0,0,0-3.26-4.24c-2-.59-4-.25-6.05-.29Zm-.09,2.41v23.26H36.3V69.36a67.6,67.6,0,0,1,8.31.07,6.63,6.63,0,0,1,5.65,6.71c0,2.36,0,4.73,0,7.09a6.88,6.88,0,0,1-7,7Z"/><path class="cls-3" d="M66.71,98.06c0-2.67,0-5.34,0-8a5,5,0,1,0-9.91.12c0,4.57,0,9.14,0,13.71a28.47,28.47,0,0,0,.08,3.07,4.84,4.84,0,0,0,4.71,4.26,4.9,4.9,0,0,0,5.12-5C66.76,103.5,66.71,100.78,66.71,98.06Zm-12.34,0c0-2.83-.06-5.65,0-8.47A7.14,7.14,0,0,1,61,82.71c4.08-.24,7.45,2.26,8.08,6A8.38,8.38,0,0,1,69.18,90c0,5.44,0,10.88,0,16.32a7.41,7.41,0,0,1-9.93,6.91,7.18,7.18,0,0,1-4.87-6.65c-.05-1.44,0-2.88,0-4.31V98.06Z"/><rect class="cls-3" x="73.1" y="69.34" width="2.23" height="44.17"/><path class="cls-3" d="M48.11,124.35l-.35.51c.23.5.34,1.27.71,1.42a3,3,0,0,0,2,0c.88-.34.88-1.23.75-2.26Zm-1.27-3.51a4,4,0,0,1,4.48-.81,2.22,2.22,0,0,1,1.19,1.59c.14,1.93.05,3.88.05,5.75a20.43,20.43,0,0,1-2.86.33,5,5,0,0,1-2.2-.5c-.94-.51-1-1.51-.83-2.46a1.74,1.74,0,0,1,1.52-1.53c1-.15,2-.19,3.2-.29-.12-.64-.22-1.21-.38-2l-3.31.37,0,.33Z"/><path class="cls-3" d="M78.44,124.19a9.27,9.27,0,0,0-2.24,0,1.67,1.67,0,0,0-1,1.09c-.14.69.4,1.08,1.09,1.21C77.87,126.84,78.62,126.05,78.44,124.19Zm.19-1.23-.18-1.63a3.19,3.19,0,0,0-3.56.23l-.72-.6c1.14-1.26,3.6-1.69,4.77-.78a2.36,2.36,0,0,1,.84,1.53c.1,1.88,0,3.77,0,5.64-1.12.14-2.13.33-3.14.37-1.64.06-2.62-.71-2.79-2a2,2,0,0,1,1.84-2.53C76.63,123,77.55,123,78.63,123Z"/><path class="cls-3" d="M91.36,123.62h0c0,.36,0,.72.06,1.07.14,1.2.8,1.87,1.82,1.89a1.87,1.87,0,0,0,1.94-1.77,8.6,8.6,0,0,0,0-1.83c-.1-1.38-.8-2.11-1.93-2.1s-1.79.74-1.9,2.13C91.35,123.21,91.36,123.42,91.36,123.62Zm5.12.43a6.7,6.7,0,0,1-.06,1,3.17,3.17,0,0,1-6.26,0,11.29,11.29,0,0,1-.08-1.84c0-2.41,1.12-3.57,3.26-3.55s3.09,1.15,3.14,3.5C96.49,123.39,96.48,123.54,96.48,124.05Z"/><path class="cls-3" d="M99.42,127.46l-1.13.09V120c1-.09,2.06-.24,3.11-.27a2.52,2.52,0,0,1,2.9,2.65c.08,1.12,0,2.25,0,3.38v1.63l-1.06.13a1.76,1.76,0,0,1-.18-.49c0-1.38,0-2.77,0-4.15s-.61-2-1.8-2-1.77.7-1.81,2S99.42,125.91,99.42,127.46Z"/><path class="cls-3" d="M63.7,121.8c.13,1,.77,1.14,1.45,1.27a12,12,0,0,1,1.8.36,1.93,1.93,0,0,1,1.33,2,2,2,0,0,1-1.23,2,4.22,4.22,0,0,1-4.63-.92L63,126c2.53,1,3.19.89,4-.49-.08-.75-.6-1-1.26-1.11a12.15,12.15,0,0,1-1.82-.32,2,2,0,0,1-1.5-2.09,2,2,0,0,1,1.54-2c1.43-.3,2.87-.38,4,1l-.72.67C65.41,120.62,64.65,120.67,63.7,121.8Z"/><path class="cls-3" d="M111.43,121l-.44.38a21.68,21.68,0,0,0-2.89-.34,1.21,1.21,0,0,0-.85.85,1.33,1.33,0,0,0,.7,1,8.82,8.82,0,0,0,1.8.35,2.11,2.11,0,0,1,2,2.17,2.07,2.07,0,0,1-1.9,2.23c-1.44.26-2.85.23-4-1.14l.7-.56c2.16,1,3,.91,3.91-.4,0-.75-.52-1-1.2-1.16a12.36,12.36,0,0,1-1.82-.31,2,2,0,0,1-1.55-1.88,2,2,0,0,1,1.17-2.15A3.84,3.84,0,0,1,111.43,121Z"/><path class="cls-3" d="M55.79,127.47l-1.11.06V120c1.2-.09,2.37-.25,3.53-.23a2.2,2.2,0,0,1,2.38,2.14c.11,1.83,0,3.67,0,5.57H59.4c0-1.65,0-3.28,0-4.91,0-.71-.24-1.45-1-1.52a2.85,2.85,0,0,0-2,.42,2.75,2.75,0,0,0-.6,1.8C55.73,124.64,55.79,126,55.79,127.47Z"/><path class="cls-3" d="M83.5,121.09v5l1.59.51,0,.81c-2.25.36-3-.19-3-2.29,0-1.28,0-2.55,0-3.64l-1.29-1.38,1.21-.41.17-1.51h1l.24,1.57,1.59.16.06,1Z"/><path class="cls-3" d="M35,120.12l1.27-.48.14-1.45,1-.1.28,1.62,1.56.2.06,1-1.61.18v5l1.59.52,0,.77A2,2,0,0,1,36.41,126a23,23,0,0,1-.08-2.76v-1.77Z"/><path class="cls-3" d="M41.12,119.76c1.69.66,3.59-.91,5.08,1l-.86.67a7.79,7.79,0,0,0-.86-.39c-1.28-.35-2.14.28-2.22,1.76s0,3,0,4.68l-1.12.08Z"/><path class="cls-3" d="M71.13,125.86l1.35.85-.06.7c-1.78.13-2.5-.39-2.53-1.89,0-2.77,0-5.54,0-8.41l1.25-.15Z"/><polygon class="cls-3" points="86.95 119.92 87.99 119.85 87.99 127.46 86.95 127.52 86.95 119.92"/><path class="cls-3" d="M121.45,51.1c.66-1.57,1.34-2,2.92-1.76.51,1.08.36,1.71-.54,2.27S122.28,52,121.45,51.1Z"/><path class="cls-3" d="M117.36,49.89c.73-1.54,1.26-1.86,2.84-1.78.61,1,.5,1.67-.37,2.28S118.15,50.88,117.36,49.89Z"/><path class="cls-3" d="M125.7,52.61c0-1.7,1.06-2.42,2.91-2a1.45,1.45,0,0,1-.59,2.07C127.26,53.19,126.44,53.44,125.7,52.61Z"/><polygon class="cls-3" points="88.18 118.25 86.86 118.25 86.86 116.99 88.08 116.99 88.18 118.25"/></svg>