<?xml version="1.0" encoding="utf-8"?>
<!-- Generator: Adobe Illustrator 22.1.0, SVG Export Plug-In . SVG Version: 6.00 Build 0)  -->
<svg version="1.1" id="Layer_1" xmlns="http://www.w3.org/2000/svg" xmlns:xlink="http://www.w3.org/1999/xlink" x="0px" y="0px"
	 viewBox="0 0 340.2 340.2" style="enable-background:new 0 0 340.2 340.2;" xml:space="preserve">
<style type="text/css">
	.st0{fill:#C84725;}
	.st1{fill:#FFFFFF;}
</style>
<path class="st0" d="M0.7,170.4c0,0.8,0,1.6,0,2.4h0.1C3.2,265,78.4,339,170.8,339s167.5-74,170-166.3h0.1c0-0.8,0-1.6,0-2.4
	c0-0.8,0-1.6,0-2.4h-0.1c-2.5-92.3-77.6-166.3-170-166.3S3.2,75.8,0.8,168H0.7C0.7,168.8,0.7,169.6,0.7,170.4z"/>
<path class="st1" d="M170.8,1.2c93.9,0,170.1,76.6,170.1,171H0.7C0.7,77.8,76.8,1.2,170.8,1.2z"/>
</svg>
