<svg xmlns="http://www.w3.org/2000/svg" width="414.533" height="353.921" viewBox="0 0 414.533 353.921"><path d="M65.365,179.328A174.036,174.036,0,0,1,82.918,102.9C79.9,86.954,65.373,35.977,0,0,0,0,77.972,1.923,150.6,29.253A173.459,173.459,0,0,1,239.784,4.734C336.113,4.734,414.2,82.9,414.2,179.328S336.113,353.921,239.784,353.921,65.365,275.753,65.365,179.328Z" transform="translate(414.534 353.921) rotate(180)" fill="#c74624"/><path d="M174.767,0c96.521,0,174.767,79.185,174.767,176.865H0C0,79.185,78.246,0,174.767,0Z" transform="translate(0 0)" fill="#fff"/></svg>